<?xml version="1.0" encoding="UTF-8"?>
<svg version="1.1" xmlns="http://www.w3.org/2000/svg" width="577" height="433">
<path d="M0 0 C0.88444794 -0.00335861 1.76889587 -0.00671722 2.68014526 -0.01017761 C5.57299242 -0.01959254 8.4657811 -0.02162603 11.35864258 -0.02270508 C13.39349897 -0.02592458 15.42835514 -0.02928916 17.46321106 -0.03279114 C21.71880631 -0.03875906 25.97438133 -0.04063348 30.22998047 -0.04003906 C35.64495526 -0.03993766 41.05979829 -0.05357804 46.47474194 -0.07081127 C50.67615844 -0.08200858 54.87754388 -0.0839559 59.07897377 -0.08342934 C61.07337205 -0.08459829 63.06777142 -0.088958 65.06215477 -0.0967617 C104.03081726 -0.23495476 104.03081726 -0.23495476 118.56567383 13.14526367 C120.34940458 15.0760052 121.93566409 17.07471076 123.56567383 19.14526367 C124.41129883 19.99088867 125.25692383 20.83651367 126.12817383 21.70776367 C136.97961617 32.55920602 139.63242807 47.28201092 139.71231079 62.16056824 C139.7118576 62.99767838 139.71140442 63.83478851 139.7109375 64.69726562 C139.71429611 65.60589355 139.71765472 66.51452148 139.72111511 67.45068359 C139.73054572 70.42831828 139.73256419 73.40589627 139.73364258 76.38354492 C139.7368605 78.47185793 139.74022496 80.56017072 139.74372864 82.64848328 C139.74970008 87.01680015 139.75157057 91.3850973 139.75097656 95.75341797 C139.75087502 101.32453491 139.76452791 106.89552418 139.78174877 112.46661091 C139.79291879 116.77771068 139.79489424 121.08878005 139.79436684 125.39989281 C139.79553939 127.45259224 139.79992002 129.50529265 139.8076992 131.55797768 C139.872061 150.29345962 139.54498374 169.36258962 126.00317383 183.89526367 C125.19879883 184.63776367 124.39442383 185.38026367 123.56567383 186.14526367 C122.86442383 187.09401367 122.16317383 188.04276367 121.44067383 189.02026367 C113.40334163 198.86345216 99.22256891 203.66174111 87.03080177 204.94381142 C83.02393597 205.27125574 79.03200159 205.29270275 75.01367188 205.29052734 C73.65072998 205.29556526 73.65072998 205.29556526 72.26025391 205.30070496 C69.28261922 205.31013556 66.30504123 205.31215403 63.32739258 205.31323242 C61.23907957 205.31645034 59.15076678 205.31981481 57.06245422 205.32331848 C52.69413735 205.32928993 48.3258402 205.33116041 43.95751953 205.33056641 C38.38640259 205.33046487 32.81541332 205.34411776 27.24432659 205.36133862 C22.93322682 205.37250864 18.62215745 205.37448409 14.31104469 205.37395668 C12.25834526 205.37512923 10.20564485 205.37950986 8.15295982 205.38728905 C-10.58252212 205.45165084 -29.65165212 205.12457359 -44.18432617 191.58276367 C-44.92682617 190.77838867 -45.66932617 189.97401367 -46.43432617 189.14526367 C-47.38307617 188.44401367 -48.33182617 187.74276367 -49.30932617 187.02026367 C-59.48531663 178.68014778 -63.91284505 164.90527212 -65.25257874 152.355896 C-65.90433897 144.4283991 -65.71834063 136.43636272 -65.69995117 128.48901367 C-65.70130204 126.41263789 -65.70324606 124.33626241 -65.70574951 122.2598877 C-65.70868096 117.92981932 -65.70446733 113.59983403 -65.69506836 109.26977539 C-65.68367511 103.75615573 -65.69024526 98.24273088 -65.70221329 92.72911835 C-65.70948565 88.44796313 -65.70711943 84.16685309 -65.7019577 79.88569641 C-65.70063603 77.85419186 -65.7022161 75.82268302 -65.70691681 73.79118347 C-65.74219205 54.26818962 -65.52429121 34.42585926 -50.82495117 19.51245117 C-49.39846544 18.34332112 -47.91753017 17.24154489 -46.43432617 16.14526367 C-45.71245117 15.36151367 -44.99057617 14.57776367 -44.24682617 13.77026367 C-31.48937457 1.86330885 -16.74656096 -0.00936836 0 0 Z M8.56567383 144.14526367 C8.56567383 144.80526367 8.56567383 145.46526367 8.56567383 146.14526367 C7.97326904 146.41169678 7.38086426 146.67812988 6.77050781 146.95263672 C4.52046858 148.16971585 3.07235771 149.40825995 1.28833008 151.22729492 C0.69213867 151.82993164 0.09594727 152.43256836 -0.51831055 153.0534668 C-1.1299707 153.68188477 -1.74163086 154.31030273 -2.37182617 154.95776367 C-2.97961914 155.57458008 -3.58741211 156.19139648 -4.21362305 156.8269043 C-4.81110352 157.4334082 -5.40858398 158.03991211 -6.02416992 158.66479492 C-6.8979126 159.55158936 -6.8979126 159.55158936 -7.78930664 160.45629883 C-9.25548051 161.9616403 -10.69275067 163.4950107 -12.12573242 165.03198242 C-15.53315025 168.15112463 -15.53315025 168.15112463 -18.43432617 168.14526367 C-20.39916992 166.92260742 -20.39916992 166.92260742 -22.37182617 165.08276367 C-23.06791992 164.43952148 -23.76401367 163.7962793 -24.48120117 163.13354492 C-26.17147613 161.41284501 -27.65430877 159.6789651 -29.12182617 157.77026367 C-31.19894442 155.00153199 -31.19894442 155.00153199 -34.05932617 154.14526367 C-36.70589814 153.92569484 -36.70589814 153.92569484 -39.43432617 156.14526367 C-40.14425187 159.00300848 -40.14425187 159.00300848 -39.43432617 162.14526367 C-37.62936462 164.20592811 -36.03039003 165.75680051 -33.93432617 167.45776367 C-32.82805369 168.40562355 -31.72520503 169.35749337 -30.62573242 170.31323242 C-30.08190918 170.78422363 -29.53808594 171.25521484 -28.9777832 171.74047852 C-26.05640266 174.39938767 -23.5688754 177.42780848 -21.05541992 180.46557617 C-19.43741813 182.40146527 -19.43741813 182.40146527 -16.43432617 183.14526367 C-15.44432617 182.48526367 -14.45432617 181.82526367 -13.43432617 181.14526367 C-13.43432617 180.48526367 -13.43432617 179.82526367 -13.43432617 179.14526367 C-11.94932617 178.65026367 -11.94932617 178.65026367 -10.43432617 178.14526367 C-8.82361657 176.51837233 -8.82361657 176.51837233 -7.24682617 174.52026367 C-4.10224356 170.78439202 -0.71700872 167.67382818 3.06176758 164.59057617 C3.55805664 164.11362305 4.0543457 163.63666992 4.56567383 163.14526367 C4.56567383 162.48526367 4.56567383 161.82526367 4.56567383 161.14526367 C5.55567383 160.81526367 6.54567383 160.48526367 7.56567383 160.14526367 C9.17638343 158.51837233 9.17638343 158.51837233 10.75317383 156.52026367 C13.29983735 153.47297399 15.89557149 150.98871375 19.00317383 148.52026367 C22.16261895 145.87151318 22.16261895 145.87151318 23.19067383 141.83276367 C22.78407124 139.01128879 22.78407124 139.01128879 20.56567383 137.14526367 C15.01786841 135.71868514 11.72498693 140.12100894 8.56567383 144.14526367 Z " fill="#9A82F5" transform="translate(251.434326171875,113.854736328125)"/>
<path d="M0 0 C6.80145061 6.10720366 10.92251398 14.05306916 11.59716797 23.20654297 C12.35112893 40.16503802 10.32135493 56.00333686 0.44921875 70.19921875 C-2.11328125 72.94921875 -2.11328125 72.94921875 -4.55078125 75.19921875 C-5.25203125 76.14796875 -5.95328125 77.09671875 -6.67578125 78.07421875 C-14.71311345 87.91740724 -28.89388617 92.71569619 -41.08565331 93.99776649 C-45.09251911 94.32521082 -49.08445349 94.34665782 -53.1027832 94.34448242 C-54.01141113 94.34784103 -54.92003906 94.35119965 -55.85620117 94.35466003 C-58.83383586 94.36409064 -61.81141385 94.36610911 -64.7890625 94.3671875 C-66.87737551 94.37040542 -68.9656883 94.37376988 -71.05400085 94.37727356 C-75.42231773 94.38324501 -79.79061488 94.38511549 -84.15893555 94.38452148 C-89.73005249 94.38441994 -95.30104176 94.39807283 -100.87212849 94.41529369 C-105.18322826 94.42646371 -109.49429763 94.42843916 -113.80541039 94.42791176 C-115.85810982 94.42908431 -117.91081023 94.43346494 -119.96349525 94.44124413 C-138.6989772 94.50560592 -157.7681072 94.17852866 -172.30078125 80.63671875 C-173.04328125 79.83234375 -173.78578125 79.02796875 -174.55078125 78.19921875 C-175.97390625 77.14734375 -175.97390625 77.14734375 -177.42578125 76.07421875 C-185.14709875 69.74592245 -191.05174161 58.03577413 -192.55078125 48.19921875 C-193.16233381 35.75483531 -193.38213032 25.33486385 -184.90625 15.53125 C-177.96092686 8.65503455 -170.76053396 4.43348641 -161.046875 3.19921875 C-159.76522461 3.03558838 -158.48357422 2.87195801 -157.16308594 2.70336914 C-155.77157843 2.53454198 -154.3799737 2.36651454 -152.98828125 2.19921875 C-151.91229675 2.06699417 -151.91229675 2.06699417 -150.8145752 1.93209839 C-140.40513404 0.65818052 -130.01501949 -0.28299276 -119.54736328 -0.94360352 C-106.79548209 -1.78191673 -94.08313346 -3.01596566 -81.36328125 -4.23828125 C-80.27301636 -4.34187958 -79.18275146 -4.44547791 -78.05944824 -4.55221558 C-65.04353496 -5.79148235 -52.05512084 -7.13957687 -39.09321594 -8.86436462 C-23.70768239 -10.82400943 -12.60252275 -9.72605536 0 0 Z M-119.55078125 33.19921875 C-119.55078125 33.85921875 -119.55078125 34.51921875 -119.55078125 35.19921875 C-120.14318604 35.46565186 -120.73559082 35.73208496 -121.34594727 36.0065918 C-123.5959865 37.22367093 -125.04409737 38.46221503 -126.828125 40.28125 C-127.42431641 40.88388672 -128.02050781 41.48652344 -128.63476562 42.10742188 C-129.24642578 42.73583984 -129.85808594 43.36425781 -130.48828125 44.01171875 C-131.09607422 44.62853516 -131.70386719 45.24535156 -132.33007812 45.88085938 C-132.92755859 46.48736328 -133.52503906 47.09386719 -134.140625 47.71875 C-135.01436768 48.60554443 -135.01436768 48.60554443 -135.90576172 49.51025391 C-137.37193559 51.01559538 -138.80920575 52.54896578 -140.2421875 54.0859375 C-143.64960533 57.20507971 -143.64960533 57.20507971 -146.55078125 57.19921875 C-148.515625 55.9765625 -148.515625 55.9765625 -150.48828125 54.13671875 C-151.184375 53.49347656 -151.88046875 52.85023438 -152.59765625 52.1875 C-154.28793121 50.46680009 -155.77076385 48.73292018 -157.23828125 46.82421875 C-159.3153995 44.05548706 -159.3153995 44.05548706 -162.17578125 43.19921875 C-164.82235322 42.97964992 -164.82235322 42.97964992 -167.55078125 45.19921875 C-168.26070695 48.05696356 -168.26070695 48.05696356 -167.55078125 51.19921875 C-165.7458197 53.25988319 -164.14684511 54.81075559 -162.05078125 56.51171875 C-160.94450877 57.45957863 -159.84166011 58.41144845 -158.7421875 59.3671875 C-158.19836426 59.83817871 -157.65454102 60.30916992 -157.09423828 60.79443359 C-154.17285773 63.45334275 -151.68533048 66.48176356 -149.171875 69.51953125 C-147.5538732 71.45542035 -147.5538732 71.45542035 -144.55078125 72.19921875 C-143.56078125 71.53921875 -142.57078125 70.87921875 -141.55078125 70.19921875 C-141.55078125 69.53921875 -141.55078125 68.87921875 -141.55078125 68.19921875 C-140.06578125 67.70421875 -140.06578125 67.70421875 -138.55078125 67.19921875 C-136.94007164 65.57232741 -136.94007164 65.57232741 -135.36328125 63.57421875 C-132.21869863 59.83834709 -128.8334638 56.72778326 -125.0546875 53.64453125 C-124.55839844 53.16757812 -124.06210938 52.690625 -123.55078125 52.19921875 C-123.55078125 51.53921875 -123.55078125 50.87921875 -123.55078125 50.19921875 C-122.56078125 49.86921875 -121.57078125 49.53921875 -120.55078125 49.19921875 C-118.94007164 47.57232741 -118.94007164 47.57232741 -117.36328125 45.57421875 C-114.81661773 42.52692907 -112.22088358 40.04266883 -109.11328125 37.57421875 C-105.95383613 34.92546825 -105.95383613 34.92546825 -104.92578125 30.88671875 C-105.33238383 28.06524386 -105.33238383 28.06524386 -107.55078125 26.19921875 C-113.09858667 24.77264021 -116.39146815 29.17496402 -119.55078125 33.19921875 Z " fill="#030304" transform="translate(379.55078125,224.80078125)"/>
<path d="M0 0 C0.88444794 -0.00335861 1.76889587 -0.00671722 2.68014526 -0.01017761 C5.57299242 -0.01959254 8.4657811 -0.02162603 11.35864258 -0.02270508 C13.39349897 -0.02592458 15.42835514 -0.02928916 17.46321106 -0.03279114 C21.71880631 -0.03875906 25.97438133 -0.04063348 30.22998047 -0.04003906 C35.64495526 -0.03993766 41.05979829 -0.05357804 46.47474194 -0.07081127 C50.67615844 -0.08200858 54.87754388 -0.0839559 59.07897377 -0.08342934 C61.07337205 -0.08459829 63.06777142 -0.088958 65.06215477 -0.0967617 C104.03081726 -0.23495476 104.03081726 -0.23495476 118.56567383 13.14526367 C120.34940458 15.0760052 121.93566409 17.07471076 123.56567383 19.14526367 C124.41129883 19.99088867 125.25692383 20.83651367 126.12817383 21.70776367 C136.8662124 32.44580224 139.58375725 46.93764881 139.66333008 61.71166992 C139.65676092 64.04372136 139.64495081 66.37576333 139.62817383 68.70776367 C139.62366211 69.90723633 139.61915039 71.10670898 139.61450195 72.3425293 C139.60281152 75.27682726 139.58642521 78.21101816 139.56567383 81.14526367 C138.90567383 81.14526367 138.24567383 81.14526367 137.56567383 81.14526367 C137.21956055 80.14946289 137.21956055 80.14946289 136.86645508 79.13354492 C134.85494041 73.68734909 133.10856715 69.94861622 128.56567383 66.14526367 C128.07454102 65.65413086 127.5834082 65.16299805 127.07739258 64.65698242 C117.64816354 55.58781941 104.90080071 55.21626101 92.56567383 54.14526367 C89.96377319 53.90254224 87.36242388 53.65440446 84.76106262 53.40597534 C82.98858258 53.23697544 81.21594651 53.06960422 79.44316101 52.90383911 C70.57297832 52.07003267 61.72644844 51.05777613 52.87817383 50.02026367 C50.01505639 49.68680934 47.15176581 49.35487948 44.28833008 49.02416992 C43.61832977 48.94678085 42.94832947 48.86939178 42.25802612 48.78965759 C35.68176747 48.0351311 29.09846834 47.36107413 22.50830078 46.74047852 C19.35985635 46.44166529 16.2405744 46.09635165 13.11254883 45.62573242 C8.92929296 45.05905789 4.77994238 44.83617852 0.56567383 44.64526367 C-3.59216117 44.45690537 -7.6747249 44.26008712 -11.79370117 43.63745117 C-26.05397197 41.70956048 -40.01894421 41.25631806 -51.93823242 49.97729492 C-59.1990109 55.88614675 -62.20845899 62.24179496 -64.43432617 71.14526367 C-64.76432617 71.14526367 -65.09432617 71.14526367 -65.43432617 71.14526367 C-65.87983285 52.08747788 -63.99782953 36.88168346 -52.43432617 21.14526367 C-50.53289609 19.21614286 -48.62966599 17.76790615 -46.43432617 16.14526367 C-45.71245117 15.36151367 -44.99057617 14.57776367 -44.24682617 13.77026367 C-31.48937457 1.86330885 -16.74656096 -0.00936836 0 0 Z " fill="#FAE6A3" transform="translate(251.434326171875,113.854736328125)"/>
<path d="M0 0 C0.33 0 0.66 0 1 0 C1.01030746 0.68016174 1.02061493 1.36032349 1.03123474 2.06109619 C1.13933019 9.13376418 1.25392595 16.20630556 1.37231445 23.27880859 C1.41565349 25.91908115 1.4573293 28.55938155 1.49731445 31.19970703 C1.55504166 34.99259842 1.61872949 38.78534979 1.68359375 42.578125 C1.70866249 44.35174408 1.70866249 44.35174408 1.73423767 46.16119385 C1.75418289 47.26203308 1.77412811 48.36287231 1.79467773 49.49707031 C1.81022202 50.46525696 1.8257663 51.4334436 1.84178162 52.43096924 C1.9881123 54.80697655 2.12961199 56.78287774 3 59 C3.99 59.33 4.98 59.66 6 60 C5.30970703 60.73476562 5.30970703 60.73476562 4.60546875 61.484375 C2.40748415 64.928419 1.95750216 68.26015059 1.3125 72.25 C1.18294922 72.99507813 1.05339844 73.74015625 0.91992188 74.5078125 C0.60335738 76.33685178 0.30032601 78.16822435 0 80 C-0.33 80 -0.66 80 -1 80 C-1.02312376 69.71695462 -1.04091525 59.43391538 -1.05181217 49.15084934 C-1.05704093 44.3765172 -1.06413844 39.60220279 -1.07543945 34.82788086 C-1.0862686 30.22433738 -1.09227689 25.62081101 -1.09487724 21.01725578 C-1.09673144 19.25690377 -1.10035196 17.49655274 -1.10573006 15.73620796 C-1.11294086 13.27927723 -1.11399093 10.82241805 -1.11352539 8.36547852 C-1.11712067 7.63036545 -1.12071594 6.89525238 -1.12442017 6.13786316 C-1.11405216 1.11405216 -1.11405216 1.11405216 0 0 Z " fill="#B7A5F0" transform="translate(187,184)"/>
<path d="M0 0 C5.04622742 -0.17105856 9.7064908 0.03609319 14.6875 0.875 C20.28597281 1.79634867 25.85139924 2.395347 31.5 2.875 C42.30960622 3.7983103 53.09060061 4.94881455 63.875 6.125 C65.14573364 6.26346344 65.14573364 6.26346344 66.44213867 6.40472412 C71.29503804 6.93395801 76.14763837 7.46585925 81 8 C81 8.33 81 8.66 81 9 C74.07 9 67.14 9 60 9 C60 8.34 60 7.68 60 7 C58.71222656 7.01160156 57.42445313 7.02320313 56.09765625 7.03515625 C54.41927228 7.0445327 52.74088674 7.05363305 51.0625 7.0625 C49.78729492 7.07506836 49.78729492 7.07506836 48.48632812 7.08789062 C47.67744141 7.09111328 46.86855469 7.09433594 46.03515625 7.09765625 C45.2862915 7.10289307 44.53742676 7.10812988 43.76586914 7.11352539 C42 7 42 7 41 6 C39.16935887 5.72409313 37.32968624 5.50771548 35.48828125 5.31640625 C33.77088745 5.13331909 33.77088745 5.13331909 32.01879883 4.9465332 C30.79572021 4.81980225 29.5726416 4.69307129 28.3125 4.5625 C18.84275887 3.55008231 9.40995775 2.47845917 0 1 C0 0.67 0 0.34 0 0 Z " fill="#AF96D3" transform="translate(252,158)"/>
<path d="M0 0 C0.93553711 0.00789551 1.87107422 0.01579102 2.83496094 0.02392578 C10.25380682 0.11458638 17.61495933 0.45475906 25 1.1875 C25.7336377 1.25727051 26.46727539 1.32704102 27.22314453 1.39892578 C29.58780021 1.62795166 31.95014651 1.87340295 34.3125 2.125 C35.06112305 2.19960449 35.80974609 2.27420898 36.58105469 2.35107422 C38.39700143 2.55806675 40.20113613 2.86408499 42 3.1875 C42.495 4.1775 42.495 4.1775 43 5.1875 C39.4789137 5.04741329 35.95820288 4.89939018 32.4375 4.75 C31.44685547 4.71068359 30.45621094 4.67136719 29.43554688 4.63085938 C25.41295504 4.45712617 21.48558739 4.25957938 17.5 3.66796875 C12.51853173 2.9841288 7.58507096 2.96333959 2.5625 2.9375 C1.56412109 2.916875 0.56574219 2.89625 -0.46289062 2.875 C-6.70768714 2.84215426 -11.30127702 3.60643357 -17 6.1875 C-16.65234375 4.26489258 -16.65234375 4.26489258 -16 2.1875 C-10.90867118 -0.39896031 -5.56978915 -0.08105514 0 0 Z " fill="#F0DBC0" transform="translate(222,153.8125)"/>
<path d="M0 0 C1.43088528 2.86177057 0.59991697 4.93375773 0 8 C-0.66 8 -1.32 8 -2 8 C-1.67 12.62 -1.34 17.24 -1 22 C-0.34 22 0.32 22 1 22 C-0.66666667 27 -2.33333333 32 -4 37 C-4.33 37 -4.66 37 -5 37 C-5.61437613 10.71835443 -5.61437613 10.71835443 0 0 Z " fill="#F8E8BB" transform="translate(191,148)"/>
<path d="M0 0 C4.61062719 9.22125438 4.2736318 19.64303735 4.125 29.75 C4.11597656 30.9359375 4.10695313 32.121875 4.09765625 33.34375 C4.07438497 36.22938907 4.04169684 39.11457855 4 42 C3.34 42 2.68 42 2 42 C0.74335022 39.09399739 0 37.20395416 0 34 C0.66 34 1.32 34 2 34 C1.67 26.08 1.34 18.16 1 10 C0.01 10.495 0.01 10.495 -1 11 C-0.67 7.37 -0.34 3.74 0 0 Z " fill="#F3E5BD" transform="translate(387,153)"/>
<path d="M0 0 C10.21775719 0.51088786 19.58610533 3.79204685 27 11 C26.01 11.495 26.01 11.495 25 12 C22.64453125 10.85546875 22.64453125 10.85546875 19.8125 9.1875 C15.57276662 6.79401297 11.77130527 5.10107045 7 4 C5.6855612 3.63185343 4.37300764 3.25690442 3.0625 2.875 C2.051875 2.58625 1.04125 2.2975 0 2 C0 1.34 0 0.68 0 0 Z " fill="#F7ECC1" transform="translate(341,115)"/>
<path d="M0 0 C-4.12367329 2.74911553 -7.84209061 3.84561208 -12.75 4.5 C-16.07840049 4.68415804 -16.07840049 4.68415804 -18 7 C-20.1640625 7.6328125 -20.1640625 7.6328125 -22.625 8.125 C-23.44226563 8.29257813 -24.25953125 8.46015625 -25.1015625 8.6328125 C-26.04128906 8.81457031 -26.04128906 8.81457031 -27 9 C-20.01175377 1.45269407 -9.84073368 -0.35145477 0 0 Z " fill="#F6EABD" transform="translate(240,115)"/>
<path d="M0 0 C0.33 0 0.66 0 1 0 C1 14.52 1 29.04 1 44 C-0.66905241 40.66189518 -1.8741386 37.53842155 -3 34 C-2.01 34 -1.02 34 0 34 C0 22.78 0 11.56 0 0 Z " fill="#9A84E4" transform="translate(389,199)"/>
<path d="M0 0 C-1.61010527 4.07376031 -4.53822271 6.76507069 -7.625 9.75 C-8.140625 10.25660156 -8.65625 10.76320313 -9.1875 11.28515625 C-10.45383339 12.52803902 -11.7263144 13.76465276 -13 15 C-13.66 14.67 -14.32 14.34 -15 14 C-2.98984772 0 -2.98984772 0 0 0 Z " fill="#555555" transform="translate(273,260)"/>
<path d="M0 0 C-1.35472306 5.58823264 -5.58113173 8.69001754 -10 12 C-11.31464089 12.70280975 -12.6432185 13.38245147 -14 14 C-12.41438362 10.14406926 -9.93490046 7.66783709 -7 4.75 C-6.113125 3.85796875 -5.22625 2.9659375 -4.3125 2.046875 C-2 0 -2 0 0 0 Z " fill="#545454" transform="translate(255,278)"/>
<path d="M0 0 C4.14096303 6.21144454 4.27656548 12.20316292 4.125 19.4375 C4.11597656 20.26443359 4.10695313 21.09136719 4.09765625 21.94335938 C4.07431512 23.96236708 4.03845288 25.98122356 4 28 C3.67 28 3.34 28 3 28 C2.67 22.39 2.34 16.78 2 11 C1.34 10.67 0.68 10.34 0 10 C0 6.7 0 3.4 0 0 Z " fill="#434051" transform="translate(387,236)"/>
<path d="M0 0 C0.33 0.66 0.66 1.32 1 2 C1.99 2.33 2.98 2.66 4 3 C3.52949219 3.55171875 3.05898437 4.1034375 2.57421875 4.671875 C0.8197887 7.26651597 0.33741363 9.18127415 -0.1875 12.25 C-0.34605469 13.14203125 -0.50460938 14.0340625 -0.66796875 14.953125 C-0.77753906 15.62859375 -0.88710937 16.3040625 -1 17 C-1.33 17 -1.66 17 -2 17 C-2.05418326 14.91695462 -2.09287551 12.83350232 -2.125 10.75 C-2.14820313 9.58984375 -2.17140625 8.4296875 -2.1953125 7.234375 C-2.0103949 4.17213954 -1.60823023 2.55797249 0 0 Z " fill="#8D7CCD" transform="translate(189,241)"/>
<path d="M0 0 C0.83144531 0.05671875 1.66289062 0.1134375 2.51953125 0.171875 C4.55544876 0.3122831 6.59035843 0.46717665 8.625 0.625 C8.625 0.955 8.625 1.285 8.625 1.625 C6.9234375 1.68107422 6.9234375 1.68107422 5.1875 1.73828125 C-5.92180686 2.12181982 -5.92180686 2.12181982 -16.375 5.625 C-16.25 3.75 -16.25 3.75 -15.375 1.625 C-10.33482091 -0.96663783 -5.46643484 -0.43591984 0 0 Z " fill="#E3CFC0" transform="translate(221.375,154.375)"/>
<path d="M0 0 C0.33 0.99 0.66 1.98 1 3 C0.01 3.33 -0.98 3.66 -2 4 C-2.33 4.99 -2.66 5.98 -3 7 C-3.66 7 -4.32 7 -5 7 C-5.33 8.65 -5.66 10.3 -6 12 C-6.99 12 -7.98 12 -9 12 C-7.18690951 6.71181939 -4.67111564 3.11407709 0 0 Z " fill="#F8EBBC" transform="translate(203,132)"/>
<path d="M0 0 C3.99900242 3.66575222 6.63557638 7.08927402 9 12 C8.67 12.99 8.34 13.98 8 15 C5.4429149 12.77644774 4.75829088 11.24981807 4 8 C3.34 7.67 2.68 7.34 2 7 C1.26924352 4.6859378 0.59861742 2.35171131 0 0 Z " fill="#F9EEC8" transform="translate(378,137)"/>
<path d="M0 0 C0.33 0 0.66 0 1 0 C1 2.31 1 4.62 1 7 C1.66 7 2.32 7 3 7 C2.4140625 13.15234375 2.4140625 13.15234375 2 15 C1.01 15.495 1.01 15.495 0 16 C0 10.72 0 5.44 0 0 Z " fill="#F5E8CF" transform="translate(186,169)"/>
<path d="M0 0 C2.12046792 3.53411321 2.53199289 6.94393835 3 11 C2.01 11 1.02 11 0 11 C-1.35015859 6.94952424 -0.62084998 4.2079832 0 0 Z " fill="#FAEBBF" transform="translate(387,153)"/>
<path d="M0 0 C0.66 0.33 1.32 0.66 2 1 C1.4375 2.9375 1.4375 2.9375 0 5 C-3.625 5.75 -3.625 5.75 -7 6 C-3.375 1.125 -3.375 1.125 0 0 Z " fill="#AE95D5" transform="translate(206,159)"/>
<path d="M0 0 C0.66 0 1.32 0 2 0 C1.67 1.32 1.34 2.64 1 4 C0.38125 4.103125 -0.2375 4.20625 -0.875 4.3125 C-3.36526484 4.87525373 -3.36526484 4.87525373 -5 8 C-5.66 7.67 -6.32 7.34 -7 7 C-4.66666667 4.66666667 -2.33333333 2.33333333 0 0 Z " fill="#F9ECC2" transform="translate(211,124)"/>
<path d="M0 0 C1.32 0.33 2.64 0.66 4 1 C4 3.97 4 6.94 4 10 C2.33094759 6.66189518 1.1258614 3.53842155 0 0 Z " fill="#9384D8" transform="translate(386,233)"/>
<path d="M0 0 C4.0369867 1.79421631 6.64480474 3.20551875 9 7 C6.69 6.34 4.38 5.68 2 5 C2 4.34 2 3.68 2 3 C1.34 2.67 0.68 2.34 0 2 C0 1.34 0 0.68 0 0 Z " fill="#A48CD5" transform="translate(370,172)"/>
<path d="M0 0 C3.2542015 2.83430453 4.5206753 4.68607774 5 9 C2.5 6.75 2.5 6.75 0 4 C0 2.68 0 1.36 0 0 Z " fill="#AE95D2" transform="translate(383,183)"/>
<path d="M0 0 C2.0625 0.4375 2.0625 0.4375 4 1 C1.03 3.475 1.03 3.475 -2 6 C-1.125 1.125 -1.125 1.125 0 0 Z " fill="#EDD9BD" transform="translate(197,162)"/>
</svg>
